<svg width="64" height="64" viewBox="0 0 24 24" xmlns="http://www.w3.org/2000/svg" fill="none">
  <rect width="24" height="24" rx="6" fill="#ffffff"/>
  <path d="M6 9.5c0-3.59 2.69-6.5 6-6.5s6 2.91 6 6.5v4c0 3.59-2.69 6.5-6 6.5s-6-2.91-6-6.5v-4z"
        stroke="#0f172a" stroke-width="1.6" stroke-linecap="round" stroke-linejoin="round"/>
  <line x1="9" y1="4.25" x2="9" y2="2.2" stroke="#0f172a" stroke-width="1.6" stroke-linecap="round"/>
  <line x1="15" y1="4.25" x2="15" y2="2.2" stroke="#0f172a" stroke-width="1.6" stroke-linecap="round"/>
  <circle cx="12" cy="1.6" r="0.9" fill="#0f172a"/>
  <circle cx="9.25" cy="11" r="0.9" fill="#0f172a"/>
  <circle cx="14.75" cy="11" r="0.9" fill="#0f172a"/>
  <path d="M8 10.2c0.75-0.9 1.75-0.9 2.5 0" stroke="#0f172a" stroke-width="1.6" stroke-linecap="round"/>
  <path d="M16 10.2c-0.75-0.9-1.75-0.9-2.5 0" stroke="#0f172a" stroke-width="1.6" stroke-linecap="round"/>
  <path d="M9.4 15.2h5.2" stroke="#0f172a" stroke-width="1.6" stroke-linecap="round"/>
  <path d="M7.6 18.5l-1 2.5h10.8l-1-2.5" stroke="#0f172a" stroke-width="1.6" stroke-linecap="round" stroke-linejoin="round"/>
  <path d="M9.25 18.5l2.75 2 2.75-2" stroke="#0f172a" stroke-width="1.6" stroke-linecap="round" stroke-linejoin="round"/>
</svg>

